 <svg xmlns="http://www.w3.org/2000/svg" viewBox="0 0 48 48" width="24px" height="24px">
              <path fill="#4285F4" d="M24 9.5c3.84 0 6.89 1.3 9.46 3.64l6.94-6.94C36.37 2.07 30.7 0 24 0 14.64 0 6.9 5.02 3.02 12.33l7.69 6.05C12.61 11.47 17.83 9.5 24 9.5z"/>
              <path fill="#34A853" d="M46.68 24.5c0-1.5-.14-2.95-.4-4.36H24v8.27h12.7c-.57 3-2.26 5.6-4.84 7.31l7.36 5.8C43.48 37.17 46.68 31.3 46.68 24.5z"/>
              <path fill="#FBBC05" d="M12.71 28.38c-1.14-1.87-1.8-4.04-1.8-6.38 0-2.34.65-4.51 1.8-6.38L5.02 12.33C1.83 17.09 0 22.85 0 28.97s1.83 11.88 5.02 16.64l7.69-6.05z"/>
              <path fill="#EA4335" d="M24 48c6.48 0 11.89-2.15 15.85-5.84l-7.36-5.8c-2.08 1.42-4.71 2.27-8.49 2.27-6.18 0-11.4-4.03-13.26-9.63l-7.69 6.05C6.9 42.98 14.64 48 24 48z"/>
              <path fill="none" d="M0 0h48v48H0z"/>
            </svg>