<svg xmlns="http://www.w3.org/2000/svg" viewBox="0 0 1024 1024" width="24" height="24">
  <path fill-rule="evenodd" clip-rule="evenodd" d="M512 0C229.23 0 0 229.23 0 512c0 226.66 146.97 418.88 350.55 486.35 25.64 4.7 34.99-11.12 34.99-24.68 0-12.19-.47-44.51-.74-87.39-142.63 30.99-172.73-68.8-172.73-68.8-23.33-59.24-57-75-57-75-46.64-31.87 3.52-31.22 3.52-31.22 51.55 3.62 78.64 52.92 78.64 52.92 45.83 78.55 120.3 55.88 149.57 42.75 4.64-33.18 17.93-55.91 32.64-68.76-113.77-12.95-233.27-56.88-233.27-253.1 0-55.94 20-101.66 52.78-137.49-5.3-12.94-22.87-65.02 5.03-135.54 0 0 43.04-13.77 140.95 52.52 40.91-11.37 84.78-17.05 128.43-17.24 43.65.19 87.52 5.87 128.45 17.24 97.85-66.29 140.81-52.52 140.81-52.52 27.95 70.52 10.39 122.6 5.09 135.54 32.84 35.83 52.73 81.55 52.73 137.49 0 196.72-119.65 240.04-233.79 252.75 18.42 15.88 34.8 47.18 34.8 95.07 0 68.64-.63 124.1-.63 140.97 0 13.67 9.24 29.62 35.16 24.58C877.05 930.78 1024 738.61 1024 512 1024 229.23 794.77 0 512 0z"/>
</svg>
